<svg xmlns="http://www.w3.org/2000/svg" xmlns:xlink="http://www.w3.org/1999/xlink" width="1080" zoomAndPan="magnify" viewBox="0 0 810 809.999993" height="1080" preserveAspectRatio="xMidYMid meet" version="1.2"><defs><clipPath id="b8016e2e43"><path d="M 81 205.886719 L 729 205.886719 L 729 604.136719 L 81 604.136719 Z M 81 205.886719 "/></clipPath></defs><g id="221431631a"><rect x="0" width="810" y="0" height="809.999993" style="fill:#ffffff;fill-opacity:1;stroke:none;"/><rect x="0" width="810" y="0" height="809.999993" style="fill:#ffffff;fill-opacity:1;stroke:none;"/><path style=" stroke:none;fill-rule:nonzero;fill:#4aba9c;fill-opacity:1;" d="M 407.472656 600.988281 L 236.535156 600.988281 C 232.578125 600.988281 229.371094 597.21875 229.371094 592.570312 L 229.371094 319.738281 C 229.371094 315.089844 232.578125 311.324219 236.535156 311.324219 L 407.472656 311.324219 C 411.429688 311.324219 414.640625 315.089844 414.640625 319.738281 L 414.640625 592.570312 C 414.640625 597.21875 411.429688 600.988281 407.472656 600.988281 Z M 407.472656 600.988281 "/><g clip-rule="nonzero" clip-path="url(#b8016e2e43)"><path style=" stroke:none;fill-rule:nonzero;fill:#000000;fill-opacity:1;" d="M 723.769531 604.117188 L 465.96875 604.117188 C 463.046875 604.117188 460.679688 601.75 460.679688 598.832031 L 460.679688 562.378906 L 327.378906 562.378906 C 324.460938 562.378906 322.09375 560.011719 322.09375 557.09375 L 322.09375 403.199219 L 178.925781 471.332031 L 178.925781 597.273438 C 178.925781 600.195312 176.558594 602.5625 173.640625 602.5625 L 86.285156 602.5625 C 83.367188 602.5625 81 600.195312 81 597.273438 C 81 594.355469 83.367188 591.988281 86.285156 591.988281 L 168.351562 591.988281 L 168.351562 467.992188 C 168.351562 465.953125 169.527344 464.09375 171.367188 463.21875 L 322.09375 391.488281 L 322.09375 211.175781 C 322.09375 208.257812 324.460938 205.890625 327.378906 205.890625 L 463.648438 205.890625 C 466.570312 205.890625 468.933594 208.257812 468.933594 211.175781 L 468.933594 329.976562 C 468.933594 332.015625 467.761719 333.871094 465.921875 334.75 L 332.664062 398.164062 L 332.664062 551.804688 L 460.679688 551.804688 L 460.679688 359.355469 C 460.679688 357.433594 461.722656 355.664062 463.402344 354.734375 C 465.082031 353.804688 467.132812 353.851562 468.765625 354.867188 L 600.96875 437.300781 C 602.519531 438.265625 603.457031 439.960938 603.457031 441.785156 L 603.457031 557.09375 C 603.457031 560.011719 601.089844 562.378906 598.171875 562.378906 L 471.253906 562.378906 L 471.253906 593.542969 L 723.769531 593.542969 C 726.691406 593.542969 729.058594 595.910156 729.058594 598.832031 C 729.058594 601.75 726.691406 604.117188 723.769531 604.117188 Z M 471.253906 551.804688 L 592.886719 551.804688 L 592.886719 444.71875 L 471.253906 368.882812 Z M 332.664062 216.460938 L 332.664062 386.457031 L 458.363281 326.636719 L 458.363281 216.460938 Z M 332.664062 216.460938 "/></g></g></svg>